<svg width="52" height="91" viewBox="0 0 52 91" fill="none" xmlns="http://www.w3.org/2000/svg">
<path d="M25.9851 89.3865C12.186 89.3865 1 76.8555 1 61.3971V28.9894C1 13.5311 12.186 1 25.9851 1C39.7842 1 50.9702 13.5311 50.9702 28.9894V61.3971C50.9702 76.8555 39.7842 89.3865 25.9851 89.3865Z" stroke="black" stroke-width="2" stroke-miterlimit="10"/>
<path d="M32.9299 51.1242C33.3363 51.0003 33.7914 50.9312 34.3126 50.9312C38.4763 50.9312 38.4763 55.4347 42.6414 55.4347C46.8051 55.4347 46.8051 50.9312 50.9703 50.9312" stroke="black" stroke-width="2" stroke-miterlimit="10"/>
<path d="M1 50.9297C5.1637 50.9297 5.1637 55.4332 9.32741 55.4332C13.4911 55.4332 13.4911 50.9297 17.6548 50.9297C18.1085 50.9297 18.5134 50.9828 18.8781 51.0777" stroke="black" stroke-width="2" stroke-miterlimit="10"/>
<path d="M30.647 39.476C31.5458 38.5528 32.5608 37.7534 34.3125 37.7534C38.4762 37.7534 38.4762 42.2569 42.6413 42.2569C46.805 42.2569 46.805 37.7534 50.9702 37.7534" stroke="black" stroke-width="2" stroke-miterlimit="10"/>
<path d="M1 37.7534C5.1637 37.7534 5.1637 42.2569 9.32741 42.2569C13.4911 42.2569 13.4911 37.7534 17.6548 37.7534C19.4093 37.7534 20.4244 38.5528 21.3232 39.4776" stroke="black" stroke-width="2" stroke-miterlimit="10"/>
<path d="M32.1475 44.8629C32.7347 44.5445 33.431 44.3418 34.3126 44.3418C38.4763 44.3418 38.4763 48.8453 42.6414 48.8453C46.8051 48.8453 46.8051 44.3418 50.9703 44.3418" stroke="black" stroke-width="2" stroke-miterlimit="10"/>
<path d="M1 44.3418C5.1637 44.3418 5.1637 48.8453 9.3274 48.8453C13.4911 48.8453 13.4911 44.3418 17.6548 44.3418C18.5378 44.3418 19.2341 44.5445 19.8214 44.8629" stroke="black" stroke-width="2" stroke-miterlimit="10"/>
<path d="M33.2844 55.5185C33.2844 63.0539 31.626 70.155 28.6928 76.3875H23.2771C20.3453 70.155 18.6855 63.0539 18.6855 55.5185C18.6855 46.3747 21.1292 37.8695 25.3245 30.7797C25.6375 30.2505 26.3324 30.2505 26.6454 30.7797C30.8421 37.8695 33.2844 46.3747 33.2844 55.5185Z" stroke="black" stroke-width="2" stroke-miterlimit="10"/>
<path d="M32.7993 62.5215C38.9731 63.3627 44.8353 65.3362 50.2136 68.2538" stroke="black" stroke-width="2" stroke-miterlimit="10"/>
<path d="M1.76367 68.2877C7.13916 65.3636 12.9999 63.3805 19.1723 62.5312" stroke="black" stroke-width="2" stroke-miterlimit="10"/>
<path d="M28.7461 34.7621C30.4948 33.4465 31.3491 31.1657 34.3125 31.1657C36.6973 31.1657 37.7153 32.6423 38.9328 33.9032C38.9328 33.9032 39.6521 30.7073 39.6521 28.9896C39.6521 20.5342 33.5329 13.6792 25.9851 13.6792C18.4373 13.6792 12.3181 20.5342 12.3181 28.9896C12.3181 30.709 12.5708 32.3608 13.0374 33.9032C13.0374 33.9032 15.2729 31.1657 17.6563 31.1657C20.6211 31.1657 21.4754 33.4481 23.2227 34.7637" stroke="black" stroke-width="2" stroke-miterlimit="10"/>
<path d="M31.5644 76.3872H28.6929" stroke="black" stroke-width="2" stroke-miterlimit="10" stroke-linecap="round"/>
<path d="M23.2773 76.3872H20.4072" stroke="black" stroke-width="2" stroke-miterlimit="10" stroke-linecap="round"/>
<path d="M18.9512 60.7056L25.9964 52.8115L33.0302 60.6911" stroke="black" stroke-width="2" stroke-miterlimit="10"/>
<path d="M25.9966 52.8115V76.3875" stroke="black" stroke-width="2" stroke-miterlimit="10"/>
</svg>
